<?xml version="1.0" standalone="no"?>
<!DOCTYPE svg PUBLIC "-//W3C//DTD SVG 20010904//EN"
 "http://www.w3.org/TR/2001/REC-SVG-20010904/DTD/svg10.dtd">
<svg version="1.0" xmlns="http://www.w3.org/2000/svg"
 width="663.000000pt" height="660.000000pt" viewBox="0 0 663.000000 660.000000"
 preserveAspectRatio="xMidYMid meet">
<metadata>
Created by potrace 1.14, written by Peter Selinger 2001-2017
</metadata>
<g transform="translate(0.000000,660.000000) scale(0.100000,-0.100000)"
fill="#000000" stroke="none">
<path d="M845 6588 c-243 -27 -415 -105 -565 -258 -124 -125 -199 -277 -237
-480 -16 -89 -18 -249 -21 -2445 -2 -1651 0 -2389 8 -2480 24 -284 88 -445
240 -609 70 -75 194 -161 286 -200 87 -36 240 -65 406 -76 192 -13 4524 -13
4716 0 160 11 320 40 397 73 256 108 444 329 504 592 42 186 42 236 39 2695
-3 2201 -5 2361 -21 2450 -38 203 -113 355 -237 480 -155 157 -321 231 -582
259 -122 14 -4815 13 -4933 -1z m225 -3003 l0 -1455 878 -2 877 -3 3 -318 2
-317 -1255 0 -1255 0 0 1775 0 1775 375 0 375 0 0 -1455z m2944 1438 c3 -10
147 -634 321 -1388 174 -753 318 -1371 319 -1372 1 -1 82 348 180 775 98 427
241 1053 319 1390 l140 612 534 0 533 0 0 -1775 0 -1775 -345 0 -345 0 -2
1465 -3 1464 -330 -1464 -330 -1465 -362 0 -361 0 -15 63 c-7 34 -155 694
-328 1466 l-314 1405 -3 -1467 -2 -1467 -345 0 -345 0 0 1775 0 1775 539 0
c505 0 540 -1 545 -17z"/>
</g>
</svg>
